<svg width="24" height="24" viewBox="0 0 24 24" fill="none" xmlns="http://www.w3.org/2000/svg">
<path d="M1.71387 7.49986C1.71387 7.89769 1.8719 8.27922 2.15321 8.56052C2.43451 8.84183 2.81604 8.99986 3.21387 8.99986C3.61169 8.99986 3.99322 8.84183 4.27453 8.56052C4.55583 8.27922 4.71387 7.89769 4.71387 7.49986C4.71387 7.10204 4.55583 6.72051 4.27453 6.4392C3.99322 6.1579 3.61169 5.99986 3.21387 5.99986C2.81604 5.99986 2.43451 6.1579 2.15321 6.4392C1.8719 6.72051 1.71387 7.10204 1.71387 7.49986ZM2.57101 9.76786V17.7856C2.57101 18.7517 2.95481 19.6783 3.63798 20.3615C4.32115 21.0446 5.24772 21.4284 6.21387 21.4284H17.7853C18.7514 21.4284 19.678 21.0446 20.3612 20.3615C21.0444 19.6783 21.4282 18.7517 21.4282 17.7856V6.21415C21.4282 5.248 21.0444 4.32143 20.3612 3.63826C19.678 2.95509 18.7514 2.57129 17.7853 2.57129H6.21387C5.42522 2.5713 4.65785 2.82714 4.02697 3.30037C3.39608 3.77361 2.93573 4.43873 2.71501 5.19586C3.158 5.10022 3.61914 5.13384 4.04358 5.29272C4.22447 4.8668 4.52672 4.50355 4.91265 4.24824C5.29859 3.99293 5.75113 3.85687 6.21387 3.857H17.7853C18.4104 3.857 19.01 4.10534 19.452 4.54739C19.8941 4.98944 20.1424 5.58899 20.1424 6.21415V17.7856C20.1424 18.4107 19.8941 19.0103 19.452 19.4523C19.01 19.8944 18.4104 20.1427 17.7853 20.1427H6.21387C5.58871 20.1427 4.98917 19.8944 4.54712 19.4523C4.10507 19.0103 3.85672 18.4107 3.85672 17.7856V9.76786C3.43641 9.88687 2.99132 9.88687 2.57101 9.76786ZM8.35672 9.42843C8.18623 9.42843 8.02272 9.49616 7.90216 9.61672C7.7816 9.73728 7.71387 9.90079 7.71387 10.0713C7.71387 10.2418 7.7816 10.4053 7.90216 10.5259C8.02272 10.6464 8.18623 10.7141 8.35672 10.7141H15.6424C15.8129 10.7141 15.9764 10.6464 16.097 10.5259C16.2176 10.4053 16.2853 10.2418 16.2853 10.0713C16.2853 9.90079 16.2176 9.73728 16.097 9.61672C15.9764 9.49616 15.8129 9.42843 15.6424 9.42843H8.35672ZM7.71387 13.4999C7.71387 13.3294 7.7816 13.1659 7.90216 13.0453C8.02272 12.9247 8.18623 12.857 8.35672 12.857H13.2853C13.4558 12.857 13.6193 12.9247 13.7399 13.0453C13.8604 13.1659 13.9282 13.3294 13.9282 13.4999C13.9282 13.6704 13.8604 13.8339 13.7399 13.9544C13.6193 14.075 13.4558 14.1427 13.2853 14.1427H8.35672C8.18623 14.1427 8.02272 14.075 7.90216 13.9544C7.7816 13.8339 7.71387 13.6704 7.71387 13.4999Z" fill="#444444"/>
</svg>
