<svg width="24" height="24" viewBox="0 0 24 24" fill="none" xmlns="http://www.w3.org/2000/svg">
<path d="M13.5 23.25H15V21.75C15 21.5511 15.079 21.3603 15.2197 21.2197C15.3603 21.079 15.5511 21 15.75 21H20.25C20.4489 21 20.6397 21.079 20.7803 21.2197C20.921 21.3603 21 21.5511 21 21.75V23.25H22.5V21.75C22.4994 21.1534 22.2622 20.5815 21.8403 20.1597C21.4185 19.7378 20.8466 19.5006 20.25 19.5H15.75C15.1534 19.5006 14.5815 19.7378 14.1597 20.1597C13.7378 20.5815 13.5006 21.1534 13.5 21.75V23.25ZM18 18.75C17.4067 18.75 16.8266 18.5741 16.3333 18.2444C15.8399 17.9148 15.4554 17.4462 15.2284 16.8981C15.0013 16.3499 14.9419 15.7467 15.0576 15.1647C15.1734 14.5828 15.4591 14.0482 15.8787 13.6287C16.2982 13.2091 16.8328 12.9234 17.4147 12.8076C17.9967 12.6919 18.5999 12.7513 19.148 12.9784C19.6962 13.2054 20.1648 13.5899 20.4944 14.0833C20.8241 14.5766 21 15.1567 21 15.75C20.9992 16.5454 20.6829 17.308 20.1204 17.8704C19.558 18.4329 18.7954 18.7492 18 18.75V18.75ZM18 14.25C17.7033 14.25 17.4133 14.338 17.1666 14.5028C16.92 14.6676 16.7277 14.9019 16.6142 15.176C16.5006 15.4501 16.4709 15.7517 16.5288 16.0426C16.5867 16.3336 16.7296 16.6009 16.9393 16.8107C17.1491 17.0204 17.4164 17.1633 17.7074 17.2212C17.9983 17.2791 18.2999 17.2494 18.574 17.1358C18.8481 17.0223 19.0824 16.83 19.2472 16.5834C19.412 16.3367 19.5 16.0467 19.5 15.75C19.4994 15.3524 19.3412 14.9712 19.06 14.69C18.7788 14.4088 18.3976 14.2506 18 14.25V14.25ZM1.5 23.25H3V21.75C3 21.5511 3.07902 21.3603 3.21967 21.2197C3.36032 21.079 3.55109 21 3.75 21H8.25C8.44891 21 8.63968 21.079 8.78033 21.2197C8.92098 21.3603 9 21.5511 9 21.75V23.25H10.5V21.75C10.4994 21.1534 10.2622 20.5815 9.84033 20.1597C9.4185 19.7378 8.84655 19.5006 8.25 19.5H3.75C3.15345 19.5006 2.5815 19.7378 2.15967 20.1597C1.73784 20.5815 1.5006 21.1534 1.5 21.75V23.25ZM6 18.75C5.40666 18.75 4.82664 18.5741 4.33329 18.2444C3.83994 17.9148 3.45542 17.4462 3.22836 16.8981C3.0013 16.3499 2.94189 15.7467 3.05764 15.1647C3.1734 14.5828 3.45912 14.0482 3.87868 13.6287C4.29824 13.2091 4.83279 12.9234 5.41473 12.8076C5.99667 12.6919 6.59987 12.7513 7.14805 12.9784C7.69623 13.2054 8.16476 13.5899 8.49441 14.0833C8.82405 14.5766 9 15.1567 9 15.75C8.99921 16.5454 8.68288 17.308 8.12044 17.8704C7.55801 18.4329 6.79541 18.7492 6 18.75V18.75ZM6 14.25C5.70333 14.25 5.41332 14.338 5.16664 14.5028C4.91997 14.6676 4.72771 14.9019 4.61418 15.176C4.50065 15.4501 4.47094 15.7517 4.52882 16.0426C4.5867 16.3336 4.72956 16.6009 4.93934 16.8107C5.14912 17.0204 5.41639 17.1633 5.70736 17.2212C5.99834 17.2791 6.29994 17.2494 6.57402 17.1358C6.84811 17.0223 7.08238 16.83 7.2472 16.5834C7.41203 16.3367 7.5 16.0467 7.5 15.75C7.4996 15.3523 7.34144 14.971 7.06022 14.6898C6.779 14.4086 6.3977 14.2504 6 14.25V14.25ZM13.5 12H15V10.5C15 10.3011 15.079 10.1103 15.2197 9.96967C15.3603 9.82902 15.5511 9.75 15.75 9.75H20.25C20.4489 9.75 20.6397 9.82902 20.7803 9.96967C20.921 10.1103 21 10.3011 21 10.5V12H22.5V10.5C22.4994 9.90345 22.2622 9.3315 21.8403 8.90967C21.4185 8.48784 20.8466 8.2506 20.25 8.25H15.75C15.1534 8.2506 14.5815 8.48784 14.1597 8.90967C13.7378 9.3315 13.5006 9.90345 13.5 10.5V12ZM18 7.5C17.4067 7.5 16.8266 7.32405 16.3333 6.99441C15.8399 6.66477 15.4554 6.19623 15.2284 5.64805C15.0013 5.09987 14.9419 4.49667 15.0576 3.91473C15.1734 3.33279 15.4591 2.79824 15.8787 2.37868C16.2982 1.95912 16.8328 1.6734 17.4147 1.55765C17.9967 1.44189 18.5999 1.5013 19.148 1.72836C19.6962 1.95543 20.1648 2.33994 20.4944 2.83329C20.8241 3.32664 21 3.90666 21 4.5C20.9992 5.29541 20.6829 6.05801 20.1204 6.62044C19.558 7.18288 18.7954 7.49921 18 7.5V7.5ZM18 3C17.7033 3 17.4133 3.08797 17.1666 3.2528C16.92 3.41762 16.7277 3.65189 16.6142 3.92598C16.5006 4.20007 16.4709 4.50167 16.5288 4.79264C16.5867 5.08361 16.7296 5.35088 16.9393 5.56066C17.1491 5.77044 17.4164 5.9133 17.7074 5.97118C17.9983 6.02906 18.2999 5.99935 18.574 5.88582C18.8481 5.77229 19.0824 5.58003 19.2472 5.33336C19.412 5.08668 19.5 4.79667 19.5 4.5C19.4996 4.1023 19.3414 3.721 19.0602 3.43978C18.779 3.15856 18.3977 3.0004 18 3V3ZM1.5 12H3V10.5C3.0002 10.3012 3.07928 10.1105 3.21989 9.96989C3.3605 9.82928 3.55115 9.7502 3.75 9.75H8.25C8.44885 9.7502 8.6395 9.82928 8.78011 9.96989C8.92072 10.1105 8.9998 10.3012 9 10.5V12H10.5V10.5C10.4994 9.90345 10.2622 9.3315 9.84033 8.90967C9.4185 8.48784 8.84655 8.2506 8.25 8.25H3.75C3.15345 8.2506 2.5815 8.48784 2.15967 8.90967C1.73784 9.3315 1.5006 9.90345 1.5 10.5V12ZM6 7.5C5.40666 7.5 4.82664 7.32405 4.33329 6.99441C3.83994 6.66477 3.45542 6.19623 3.22836 5.64805C3.0013 5.09987 2.94189 4.49667 3.05764 3.91473C3.1734 3.33279 3.45912 2.79824 3.87868 2.37868C4.29824 1.95912 4.83279 1.6734 5.41473 1.55765C5.99667 1.44189 6.59987 1.5013 7.14805 1.72836C7.69623 1.95543 8.16476 2.33994 8.49441 2.83329C8.82405 3.32664 9 3.90666 9 4.5C8.99901 5.29535 8.68262 6.05783 8.12022 6.62023C7.55783 7.18262 6.79534 7.49901 6 7.5V7.5ZM6 3C5.70333 3 5.41332 3.08797 5.16664 3.2528C4.91997 3.41762 4.72771 3.65189 4.61418 3.92598C4.50065 4.20007 4.47094 4.50167 4.52882 4.79264C4.5867 5.08361 4.72956 5.35088 4.93934 5.56066C5.14912 5.77044 5.41639 5.9133 5.70736 5.97118C5.99834 6.02906 6.29994 5.99935 6.57402 5.88582C6.84811 5.77229 7.08238 5.58003 7.2472 5.33336C7.41203 5.08668 7.5 4.79667 7.5 4.5C7.4996 4.1023 7.34144 3.721 7.06022 3.43978C6.779 3.15856 6.3977 3.0004 6 3Z" fill="white"/>
</svg>
