<svg width="24" height="24" viewBox="0 0 24 24" fill="none" xmlns="http://www.w3.org/2000/svg">
<path d="M16.908 2.6798C15.54 1.6934 13.8216 1.2002 11.7528 1.2002C10.1796 1.2002 8.85124 1.547 7.77244 2.2418C6.06004 3.329 5.15044 5.1758 5.04004 7.7798H9.00844C9.00844 7.0202 9.23044 6.2918 9.67204 5.5862C10.1148 4.883 10.866 4.5314 11.9256 4.5314C13.0032 4.5314 13.746 4.817 14.1504 5.387C14.5572 5.9594 14.76 6.5918 14.76 7.2854C14.76 7.8902 14.4576 8.4434 14.0916 8.945C13.8735 9.25639 13.6055 9.52966 13.2984 9.7538C13.2984 9.7538 11.1468 11.1338 10.2024 12.2426C9.65524 12.8846 9.60604 13.8482 9.55684 15.2282C9.55444 15.3266 9.59164 15.5306 9.93484 15.5306H13.02C13.3272 15.5306 13.3908 15.3038 13.3944 15.2018C13.416 14.7002 13.4712 14.4422 13.5636 14.1518C13.7364 13.6034 14.2092 13.1258 14.7384 12.713L15.8304 11.9606C16.8168 11.1914 17.6028 10.5614 17.9508 10.067C18.5436 9.2558 18.9612 8.255 18.9612 7.067C18.96 5.129 18.276 3.6686 16.908 2.6798ZM11.6892 17.909C10.3224 17.867 9.19444 18.8138 9.15124 20.297C9.10924 21.7778 10.1808 22.7582 11.5488 22.7978C12.9756 22.8398 14.0736 21.9254 14.118 20.4422C14.1588 18.959 13.1172 17.951 11.6892 17.909Z" fill="#444444"/>
</svg>
