<svg width="24" height="24" viewBox="0 0 24 24" fill="none" xmlns="http://www.w3.org/2000/svg">
<g clip-path="url(#clip0_343_191)">
<path d="M12.0117 0.75C9.06048 0.751574 6.22804 1.91278 4.125 3.9833V0.75H2.625V6.75H8.625V5.25H4.9822C5.89145 4.30228 6.9828 3.54802 8.19075 3.0325C9.39871 2.51698 10.6984 2.25082 12.0117 2.25C17.3813 2.25 21.75 6.61875 21.75 11.9883C21.75 17.3578 17.3813 21.7266 12.0117 21.7266C6.64219 21.7266 2.27344 17.3578 2.27344 11.9883H0.773438C0.773435 14.211 1.43255 16.3838 2.66742 18.2319C3.9023 20.0801 5.65748 21.5205 7.71101 22.3711C9.76454 23.2217 12.0242 23.4443 14.2042 23.0106C16.3842 22.577 18.3867 21.5067 19.9584 19.935C21.5301 18.3633 22.6004 16.3608 23.0341 14.1808C23.4677 12.0007 23.2451 9.7411 22.3946 7.68758C21.5439 5.63405 20.1035 3.87887 18.2554 2.64399C16.4073 1.40911 14.2344 0.749997 12.0117 0.75Z" fill="#222222"/>
<path d="M11.2497 5.24805L11.2246 13.5003H17.2497V12.0003H12.7292L12.7497 5.25264L11.2497 5.24805Z" fill="#222222"/>
</g>
<defs>
<clipPath id="clip0_343_191">
<rect width="24" height="24" fill="white"/>
</clipPath>
</defs>
</svg>
