<svg width="24" height="24" viewBox="0 0 24 24" fill="none" xmlns="http://www.w3.org/2000/svg">
<g clip-path="url(#clip0_343_173)">
<path d="M22.4734 11.5269L12.4734 1.52687C12.3484 1.4027 12.1795 1.33301 12.0034 1.33301C11.8272 1.33301 11.6583 1.4027 11.5334 1.52687L1.53335 11.5269C1.42413 11.6544 1.36706 11.8185 1.37354 11.9862C1.38002 12.154 1.44958 12.3132 1.56831 12.4319C1.68704 12.5506 1.8462 12.6202 2.01398 12.6267C2.18177 12.6332 2.34582 12.5761 2.47335 12.4669L12 2.9402L21.5267 12.4735C21.6542 12.5828 21.8183 12.6398 21.9861 12.6333C22.1538 12.6269 22.313 12.5573 22.4317 12.4386C22.5505 12.3198 22.62 12.1607 22.6265 11.9929C22.633 11.8251 22.5759 11.6611 22.4667 11.5335L22.4734 11.5269Z" fill="#222222"/>
<path d="M18.6667 21.3332H15.3333V14.6665H8.66667V21.3332H5.33333V11.9998L4 13.3332V21.3332C4 21.6868 4.14048 22.0259 4.39052 22.276C4.64057 22.526 4.97971 22.6665 5.33333 22.6665H10V15.9998H14V22.6665H18.6667C19.0203 22.6665 19.3594 22.526 19.6095 22.276C19.8595 22.0259 20 21.6868 20 21.3332V13.1732L18.6667 11.8398V21.3332Z" fill="#222222"/>
</g>
<defs>
<clipPath id="clip0_343_173">
<rect width="24" height="24" fill="white"/>
</clipPath>
</defs>
</svg>
