<svg width="292" height="54" viewBox="0 0 292 54" fill="none" xmlns="http://www.w3.org/2000/svg">
<rect width="292" height="54" rx="12" fill="#D9D9D9" fill-opacity="0.5"/>
<path d="M262 34.5C262 35.2956 261.684 36.0587 261.121 36.6213C260.559 37.1839 259.796 37.5 259 37.5H248.5C247.704 37.5 246.941 37.1839 246.379 36.6213C245.816 36.0587 245.5 35.2956 245.5 34.5V24C245.5 23.2044 245.816 22.4413 246.379 21.8787C246.941 21.3161 247.704 21 248.5 21V22.5C248.102 22.5 247.721 22.658 247.439 22.9393C247.158 23.2206 247 23.6022 247 24V34.5C247 34.8978 247.158 35.2794 247.439 35.5607C247.721 35.842 248.102 36 248.5 36H259C259.398 36 259.779 35.842 260.061 35.5607C260.342 35.2794 260.5 34.8978 260.5 34.5H262Z" fill="#444444"/>
<path d="M253 18C252.602 18 252.221 18.158 251.939 18.4393C251.658 18.7206 251.5 19.1022 251.5 19.5V30C251.5 30.3978 251.658 30.7794 251.939 31.0607C252.221 31.342 252.602 31.5 253 31.5H263.5C263.898 31.5 264.279 31.342 264.561 31.0607C264.842 30.7794 265 30.3978 265 30V19.5C265 19.1022 264.842 18.7206 264.561 18.4393C264.279 18.158 263.898 18 263.5 18H253ZM253 16.5H263.5C264.296 16.5 265.059 16.8161 265.621 17.3787C266.184 17.9413 266.5 18.7044 266.5 19.5V30C266.5 30.7956 266.184 31.5587 265.621 32.1213C265.059 32.6839 264.296 33 263.5 33H253C252.204 33 251.441 32.6839 250.879 32.1213C250.316 31.5587 250 30.7956 250 30V19.5C250 18.7044 250.316 17.9413 250.879 17.3787C251.441 16.8161 252.204 16.5 253 16.5Z" fill="#444444"/>
<path d="M26.7614 32.1449C26.3466 32.1449 25.9716 32.0682 25.6364 31.9148C25.3011 31.7585 25.0355 31.5327 24.8395 31.2372C24.6463 30.9418 24.5497 30.5795 24.5497 30.1506C24.5497 29.7812 24.6207 29.4773 24.7628 29.2386C24.9048 29 25.0966 28.8111 25.3381 28.6719C25.5795 28.5327 25.8494 28.4276 26.1477 28.3565C26.446 28.2855 26.75 28.2315 27.0597 28.1946C27.4517 28.1491 27.7699 28.1122 28.0142 28.0838C28.2585 28.0526 28.4361 28.0028 28.5469 27.9347C28.6577 27.8665 28.7131 27.7557 28.7131 27.6023V27.5724C28.7131 27.2003 28.608 26.9119 28.3977 26.7074C28.1903 26.5028 27.8807 26.4006 27.4688 26.4006C27.0398 26.4006 26.7017 26.4957 26.4545 26.6861C26.2102 26.8736 26.0412 27.0824 25.9474 27.3125L24.75 27.0398C24.892 26.642 25.0994 26.321 25.3722 26.0767C25.6477 25.8295 25.9645 25.6506 26.3224 25.5398C26.6804 25.4261 27.0568 25.3693 27.4517 25.3693C27.7131 25.3693 27.9901 25.4006 28.2827 25.4631C28.5781 25.5227 28.8537 25.6335 29.1094 25.7955C29.3679 25.9574 29.5795 26.1889 29.7443 26.4901C29.9091 26.7884 29.9915 27.1761 29.9915 27.6534V32H28.7472V31.1051H28.696C28.6136 31.2699 28.4901 31.4318 28.3253 31.5909C28.1605 31.75 27.9489 31.8821 27.6903 31.9872C27.4318 32.0923 27.1222 32.1449 26.7614 32.1449ZM27.0384 31.1222C27.3906 31.1222 27.6918 31.0526 27.9418 30.9134C28.1946 30.7741 28.3864 30.5923 28.517 30.3679C28.6506 30.1406 28.7173 29.8977 28.7173 29.6392V28.7955C28.6719 28.8409 28.5838 28.8835 28.4531 28.9233C28.3253 28.9602 28.179 28.9929 28.0142 29.0213C27.8494 29.0469 27.6889 29.071 27.5327 29.0938C27.3764 29.1136 27.2457 29.1307 27.1406 29.1449C26.8935 29.1761 26.6676 29.2287 26.4631 29.3026C26.2614 29.3764 26.0994 29.483 25.9773 29.6222C25.858 29.7585 25.7983 29.9403 25.7983 30.1676C25.7983 30.483 25.9148 30.7216 26.1477 30.8835C26.3807 31.0426 26.6776 31.1222 27.0384 31.1222ZM34.1388 32.1278C33.6104 32.1278 33.1388 31.9929 32.7241 31.723C32.3121 31.4503 31.9883 31.0625 31.7525 30.5597C31.5195 30.054 31.4031 29.4474 31.4031 28.7401C31.4031 28.0327 31.521 27.4276 31.7567 26.9247C31.9954 26.4219 32.3221 26.0369 32.7369 25.7699C33.1516 25.5028 33.6218 25.3693 34.1474 25.3693C34.5536 25.3693 34.8803 25.4375 35.1275 25.5739C35.3775 25.7074 35.5707 25.8636 35.707 26.0426C35.8462 26.2216 35.9542 26.3793 36.0309 26.5156H36.1076V23.2727H37.3817V32H36.1374V30.9815H36.0309C35.9542 31.1207 35.8434 31.2798 35.6985 31.4588C35.5565 31.6378 35.3604 31.794 35.1104 31.9276C34.8604 32.0611 34.5366 32.1278 34.1388 32.1278ZM34.4201 31.0412C34.7866 31.0412 35.0962 30.9446 35.3491 30.7514C35.6048 30.5554 35.7979 30.2841 35.9286 29.9375C36.0621 29.5909 36.1289 29.1875 36.1289 28.7273C36.1289 28.2727 36.0636 27.875 35.9329 27.5341C35.8022 27.1932 35.6104 26.9276 35.3576 26.7372C35.1048 26.5469 34.7923 26.4517 34.4201 26.4517C34.0366 26.4517 33.717 26.5511 33.4613 26.75C33.2056 26.9489 33.0124 27.2202 32.8817 27.5639C32.7539 27.9077 32.69 28.2955 32.69 28.7273C32.69 29.1648 32.7553 29.5582 32.886 29.9077C33.0167 30.2571 33.2099 30.5341 33.4656 30.7386C33.7241 30.9403 34.0423 31.0412 34.4201 31.0412ZM44.1051 27.0526L42.9503 27.2571C42.902 27.1094 42.8253 26.9687 42.7202 26.8352C42.6179 26.7017 42.4787 26.5923 42.3026 26.5071C42.1264 26.4219 41.9063 26.3793 41.642 26.3793C41.2813 26.3793 40.9801 26.4602 40.7386 26.6222C40.4972 26.7812 40.3764 26.9872 40.3764 27.2401C40.3764 27.4588 40.4574 27.6349 40.6193 27.7685C40.7813 27.902 41.0426 28.0114 41.4034 28.0966L42.4432 28.3352C43.0455 28.4744 43.4943 28.6889 43.7898 28.9787C44.0852 29.2685 44.233 29.6449 44.233 30.108C44.233 30.5 44.1193 30.8494 43.892 31.1562C43.6676 31.4602 43.3537 31.6989 42.9503 31.8722C42.5497 32.0455 42.0852 32.1321 41.5568 32.1321C40.8239 32.1321 40.2259 31.9759 39.7628 31.6634C39.2997 31.348 39.0156 30.9006 38.9105 30.321L40.142 30.1335C40.2188 30.4545 40.3764 30.6974 40.6151 30.8622C40.8537 31.0241 41.1648 31.1051 41.5483 31.1051C41.9659 31.1051 42.2997 31.0185 42.5497 30.8452C42.7997 30.669 42.9247 30.4545 42.9247 30.2017C42.9247 29.9972 42.848 29.8253 42.6946 29.6861C42.544 29.5469 42.3125 29.4418 42 29.3707L40.892 29.1278C40.2813 28.9886 39.8295 28.767 39.5369 28.4631C39.2472 28.1591 39.1023 27.7741 39.1023 27.3082C39.1023 26.9219 39.2102 26.5838 39.4261 26.294C39.642 26.0043 39.9403 25.7784 40.321 25.6165C40.7017 25.4517 41.1378 25.3693 41.6293 25.3693C42.3366 25.3693 42.8935 25.5227 43.2997 25.8295C43.706 26.1335 43.9744 26.5412 44.1051 27.0526ZM49.4904 27.7599V28.8636H45.6211V27.7599H49.4904ZM54.0096 32.1321C53.3647 32.1321 52.8093 31.9943 52.3434 31.7188C51.8803 31.4403 51.5224 31.0497 51.2695 30.5469C51.0195 30.0412 50.8945 29.4489 50.8945 28.7699C50.8945 28.0994 51.0195 27.5085 51.2695 26.9972C51.5224 26.4858 51.8746 26.0866 52.3263 25.7997C52.7809 25.5128 53.3121 25.3693 53.9201 25.3693C54.2894 25.3693 54.6474 25.4304 54.994 25.5526C55.3406 25.6747 55.6516 25.8665 55.9272 26.1278C56.2028 26.3892 56.4201 26.7287 56.5792 27.1463C56.7383 27.5611 56.8178 28.0653 56.8178 28.6591V29.1108H51.6147V28.1562H55.5692C55.5692 27.821 55.5011 27.5241 55.3647 27.2656C55.2283 27.0043 55.0366 26.7983 54.7894 26.6477C54.5451 26.4972 54.2582 26.4219 53.9286 26.4219C53.5707 26.4219 53.2582 26.5099 52.9911 26.6861C52.7269 26.8594 52.5224 27.0866 52.3775 27.3679C52.2354 27.6463 52.1644 27.9489 52.1644 28.2756V29.0213C52.1644 29.4588 52.2411 29.831 52.3945 30.1378C52.5508 30.4446 52.7681 30.679 53.0465 30.8409C53.3249 31 53.6502 31.0795 54.0224 31.0795C54.2638 31.0795 54.484 31.0455 54.6829 30.9773C54.8817 30.9062 55.0536 30.8011 55.1985 30.6619C55.3434 30.5227 55.4542 30.3509 55.5309 30.1463L56.7369 30.3636C56.6403 30.7187 56.467 31.0298 56.217 31.2969C55.9698 31.5611 55.6587 31.767 55.2837 31.9148C54.9116 32.0597 54.4869 32.1321 54.0096 32.1321ZM58.2315 32V25.4545H59.4631V26.4943H59.5312C59.6506 26.142 59.8608 25.8651 60.1619 25.6634C60.4659 25.4588 60.8097 25.3565 61.1932 25.3565C61.2727 25.3565 61.3665 25.3594 61.4744 25.3651C61.5852 25.3707 61.6719 25.3778 61.7344 25.3864V26.6051C61.6832 26.5909 61.5923 26.5753 61.4616 26.5582C61.331 26.5384 61.2003 26.5284 61.0696 26.5284C60.7685 26.5284 60.5 26.5923 60.2642 26.7202C60.0313 26.8452 59.8466 27.0199 59.7102 27.2443C59.5739 27.4659 59.5057 27.7187 59.5057 28.0028V32H58.2315ZM62.837 32V25.4545H64.0685V26.4943H64.1367C64.256 26.142 64.4663 25.8651 64.7674 25.6634C65.0714 25.4588 65.4151 25.3565 65.7987 25.3565C65.8782 25.3565 65.9719 25.3594 66.0799 25.3651C66.1907 25.3707 66.2773 25.3778 66.3398 25.3864V26.6051C66.2887 26.5909 66.1978 26.5753 66.0671 26.5582C65.9364 26.5384 65.8058 26.5284 65.6751 26.5284C65.3739 26.5284 65.1055 26.5923 64.8697 26.7202C64.6367 26.8452 64.4521 27.0199 64.3157 27.2443C64.1793 27.4659 64.1112 27.7187 64.1112 28.0028V32H62.837ZM70.9123 27.7599V28.8636H67.043V27.7599H70.9123ZM78.2099 25.4545L75.8363 32H74.4727L72.0948 25.4545H73.4627L75.1204 30.4915H75.1886L76.842 25.4545H78.2099ZM81.9418 32.1321C81.3082 32.1321 80.7628 31.9886 80.3054 31.7017C79.8509 31.4119 79.5014 31.0128 79.2571 30.5043C79.0128 29.9957 78.8906 29.4134 78.8906 28.7571C78.8906 28.0923 79.0156 27.5057 79.2656 26.9972C79.5156 26.4858 79.8679 26.0866 80.3224 25.7997C80.777 25.5128 81.3125 25.3693 81.929 25.3693C82.4261 25.3693 82.8693 25.4616 83.2585 25.6463C83.6477 25.8281 83.9616 26.0838 84.2003 26.4134C84.4418 26.7429 84.5852 27.1278 84.6307 27.5682H83.3906C83.3224 27.2614 83.1662 26.9972 82.9219 26.7756C82.6804 26.554 82.3565 26.4432 81.9503 26.4432C81.5952 26.4432 81.2841 26.5369 81.017 26.7244C80.7528 26.9091 80.5469 27.1733 80.3991 27.517C80.2514 27.858 80.1776 28.2614 80.1776 28.7273C80.1776 29.2045 80.25 29.6165 80.3949 29.9631C80.5398 30.3097 80.7443 30.5781 81.0085 30.7685C81.2756 30.9588 81.5895 31.054 81.9503 31.054C82.1918 31.054 82.4105 31.0099 82.6065 30.9219C82.8054 30.831 82.9716 30.7017 83.1051 30.5341C83.2415 30.3665 83.3366 30.1648 83.3906 29.929H84.6307C84.5852 30.3523 84.4474 30.7301 84.2173 31.0625C83.9872 31.3949 83.679 31.6562 83.2926 31.8466C82.9091 32.0369 82.4588 32.1321 81.9418 32.1321ZM89.8498 27.7599V28.8636H85.9805V27.7599H89.8498ZM93.9982 32.1278C93.4698 32.1278 92.9982 31.9929 92.5835 31.723C92.1715 31.4503 91.8477 31.0625 91.6119 30.5597C91.3789 30.054 91.2624 29.4474 91.2624 28.7401C91.2624 28.0327 91.3803 27.4276 91.6161 26.9247C91.8548 26.4219 92.1815 26.0369 92.5962 25.7699C93.011 25.5028 93.4812 25.3693 94.0067 25.3693C94.413 25.3693 94.7397 25.4375 94.9869 25.5739C95.2369 25.7074 95.43 25.8636 95.5664 26.0426C95.7056 26.2216 95.8136 26.3793 95.8903 26.5156H95.967V23.2727H97.2411V32H95.9968V30.9815H95.8903C95.8136 31.1207 95.7028 31.2798 95.5579 31.4588C95.4158 31.6378 95.2198 31.794 94.9698 31.9276C94.7198 32.0611 94.396 32.1278 93.9982 32.1278ZM94.2795 31.0412C94.646 31.0412 94.9556 30.9446 95.2085 30.7514C95.4641 30.5554 95.6573 30.2841 95.788 29.9375C95.9215 29.5909 95.9883 29.1875 95.9883 28.7273C95.9883 28.2727 95.9229 27.875 95.7923 27.5341C95.6616 27.1932 95.4698 26.9276 95.217 26.7372C94.9641 26.5469 94.6516 26.4517 94.2795 26.4517C93.896 26.4517 93.5763 26.5511 93.3207 26.75C93.065 26.9489 92.8718 27.2202 92.7411 27.5639C92.6133 27.9077 92.5494 28.2955 92.5494 28.7273C92.5494 29.1648 92.6147 29.5582 92.7454 29.9077C92.8761 30.2571 93.0692 30.5341 93.3249 30.7386C93.5835 30.9403 93.9016 31.0412 94.2795 31.0412ZM102.175 25.4545V26.4773H98.4759V25.4545H102.175ZM99.4901 32V24.696C99.4901 24.2869 99.5795 23.9474 99.7585 23.6776C99.9375 23.4048 100.175 23.2017 100.47 23.0682C100.766 22.9318 101.087 22.8636 101.433 22.8636C101.689 22.8636 101.908 22.8849 102.089 22.9276C102.271 22.9673 102.406 23.0043 102.494 23.0384L102.196 24.0696C102.136 24.0526 102.06 24.0327 101.966 24.0099C101.872 23.9844 101.759 23.9716 101.625 23.9716C101.315 23.9716 101.094 24.0483 100.96 24.2017C100.83 24.3551 100.764 24.5767 100.764 24.8665V32H99.4901ZM105.682 32.1278C105.153 32.1278 104.682 31.9929 104.267 31.723C103.855 31.4503 103.531 31.0625 103.295 30.5597C103.063 30.054 102.946 29.4474 102.946 28.7401C102.946 28.0327 103.064 27.4276 103.3 26.9247C103.538 26.4219 103.865 26.0369 104.28 25.7699C104.695 25.5028 105.165 25.3693 105.69 25.3693C106.097 25.3693 106.423 25.4375 106.67 25.5739C106.92 25.7074 107.114 25.8636 107.25 26.0426C107.389 26.2216 107.497 26.3793 107.574 26.5156H107.651V23.2727H108.925V32H107.68V30.9815H107.574C107.497 31.1207 107.386 31.2798 107.241 31.4588C107.099 31.6378 106.903 31.794 106.653 31.9276C106.403 32.0611 106.08 32.1278 105.682 32.1278ZM105.963 31.0412C106.33 31.0412 106.639 30.9446 106.892 30.7514C107.148 30.5554 107.341 30.2841 107.472 29.9375C107.605 29.5909 107.672 29.1875 107.672 28.7273C107.672 28.2727 107.607 27.875 107.476 27.5341C107.345 27.1932 107.153 26.9276 106.901 26.7372C106.648 26.5469 106.335 26.4517 105.963 26.4517C105.58 26.4517 105.26 26.5511 105.004 26.75C104.749 26.9489 104.555 27.2202 104.425 27.5639C104.297 27.9077 104.233 28.2955 104.233 28.7273C104.233 29.1648 104.298 29.5582 104.429 29.9077C104.56 30.2571 104.753 30.5341 105.009 30.7386C105.267 30.9403 105.585 31.0412 105.963 31.0412ZM114.6 27.7599V28.8636H110.73V27.7599H114.6ZM117.034 25.4545L118.479 28.0028L119.936 25.4545H121.33L119.288 28.7273L121.347 32H119.953L118.479 29.554L117.009 32H115.611L117.648 28.7273L115.636 25.4545H117.034ZM125.753 25.4545V26.4773H122.054V25.4545H125.753ZM123.068 32V24.696C123.068 24.2869 123.158 23.9474 123.337 23.6776C123.516 23.4048 123.753 23.2017 124.048 23.0682C124.344 22.9318 124.665 22.8636 125.011 22.8636C125.267 22.8636 125.486 22.8849 125.668 22.9276C125.849 22.9673 125.984 23.0043 126.072 23.0384L125.774 24.0696C125.714 24.0526 125.638 24.0327 125.544 24.0099C125.45 23.9844 125.337 23.9716 125.203 23.9716C124.893 23.9716 124.672 24.0483 124.538 24.2017C124.408 24.3551 124.342 24.5767 124.342 24.8665V32H123.068ZM129.26 32.1278C128.732 32.1278 128.26 31.9929 127.845 31.723C127.433 31.4503 127.109 31.0625 126.874 30.5597C126.641 30.054 126.524 29.4474 126.524 28.7401C126.524 28.0327 126.642 27.4276 126.878 26.9247C127.116 26.4219 127.443 26.0369 127.858 25.7699C128.273 25.5028 128.743 25.3693 129.268 25.3693C129.675 25.3693 130.001 25.4375 130.249 25.5739C130.499 25.7074 130.692 25.8636 130.828 26.0426C130.967 26.2216 131.075 26.3793 131.152 26.5156H131.229V23.2727H132.503V32H131.259V30.9815H131.152C131.075 31.1207 130.964 31.2798 130.82 31.4588C130.678 31.6378 130.482 31.794 130.232 31.9276C129.982 32.0611 129.658 32.1278 129.26 32.1278ZM129.541 31.0412C129.908 31.0412 130.217 30.9446 130.47 30.7514C130.726 30.5554 130.919 30.2841 131.05 29.9375C131.183 29.5909 131.25 29.1875 131.25 28.7273C131.25 28.2727 131.185 27.875 131.054 27.5341C130.923 27.1932 130.732 26.9276 130.479 26.7372C130.226 26.5469 129.913 26.4517 129.541 26.4517C129.158 26.4517 128.838 26.5511 128.582 26.75C128.327 26.9489 128.134 27.2202 128.003 27.5639C127.875 27.9077 127.811 28.2955 127.811 28.7273C127.811 29.1648 127.876 29.5582 128.007 29.9077C128.138 30.2571 128.331 30.5341 128.587 30.7386C128.845 30.9403 129.163 31.0412 129.541 31.0412ZM136.772 32.1278C136.243 32.1278 135.772 31.9929 135.357 31.723C134.945 31.4503 134.621 31.0625 134.385 30.5597C134.152 30.054 134.036 29.4474 134.036 28.7401C134.036 28.0327 134.154 27.4276 134.39 26.9247C134.628 26.4219 134.955 26.0369 135.37 25.7699C135.784 25.5028 136.255 25.3693 136.78 25.3693C137.186 25.3693 137.513 25.4375 137.76 25.5739C138.01 25.7074 138.203 25.8636 138.34 26.0426C138.479 26.2216 138.587 26.3793 138.664 26.5156H138.74V23.2727H140.015V32H138.77V30.9815H138.664C138.587 31.1207 138.476 31.2798 138.331 31.4588C138.189 31.6378 137.993 31.794 137.743 31.9276C137.493 32.0611 137.169 32.1278 136.772 32.1278ZM137.053 31.0412C137.419 31.0412 137.729 30.9446 137.982 30.7514C138.238 30.5554 138.431 30.2841 138.561 29.9375C138.695 29.5909 138.762 29.1875 138.762 28.7273C138.762 28.2727 138.696 27.875 138.566 27.5341C138.435 27.1932 138.243 26.9276 137.99 26.7372C137.738 26.5469 137.425 26.4517 137.053 26.4517C136.669 26.4517 136.35 26.5511 136.094 26.75C135.838 26.9489 135.645 27.2202 135.515 27.5639C135.387 27.9077 135.323 28.2955 135.323 28.7273C135.323 29.1648 135.388 29.5582 135.519 29.9077C135.65 30.2571 135.843 30.5341 136.098 30.7386C136.357 30.9403 136.675 31.0412 137.053 31.0412ZM144.948 25.4545V26.4773H141.249V25.4545H144.948ZM142.263 32V24.696C142.263 24.2869 142.353 23.9474 142.532 23.6776C142.711 23.4048 142.948 23.2017 143.244 23.0682C143.539 22.9318 143.86 22.8636 144.207 22.8636C144.462 22.8636 144.681 22.8849 144.863 22.9276C145.045 22.9673 145.18 23.0043 145.268 23.0384L144.969 24.0696C144.91 24.0526 144.833 24.0327 144.739 24.0099C144.646 23.9844 144.532 23.9716 144.398 23.9716C144.089 23.9716 143.867 24.0483 143.734 24.2017C143.603 24.3551 143.538 24.5767 143.538 24.8665V32H142.263ZM146.423 32.081C146.19 32.081 145.989 31.9986 145.822 31.8338C145.654 31.6662 145.57 31.4645 145.57 31.2287C145.57 30.9957 145.654 30.7969 145.822 30.6321C145.989 30.4645 146.19 30.3807 146.423 30.3807C146.656 30.3807 146.856 30.4645 147.023 30.6321C147.191 30.7969 147.275 30.9957 147.275 31.2287C147.275 31.3849 147.235 31.5284 147.156 31.6591C147.079 31.7869 146.977 31.8892 146.849 31.9659C146.721 32.0426 146.579 32.081 146.423 32.081ZM149.821 32.081C149.588 32.081 149.388 31.9986 149.22 31.8338C149.053 31.6662 148.969 31.4645 148.969 31.2287C148.969 30.9957 149.053 30.7969 149.22 30.6321C149.388 30.4645 149.588 30.3807 149.821 30.3807C150.054 30.3807 150.254 30.4645 150.422 30.6321C150.589 30.7969 150.673 30.9957 150.673 31.2287C150.673 31.3849 150.634 31.5284 150.554 31.6591C150.477 31.7869 150.375 31.8892 150.247 31.9659C150.119 32.0426 149.977 32.081 149.821 32.081ZM153.219 32.081C152.987 32.081 152.786 31.9986 152.619 31.8338C152.451 31.6662 152.367 31.4645 152.367 31.2287C152.367 30.9957 152.451 30.7969 152.619 30.6321C152.786 30.4645 152.987 30.3807 153.219 30.3807C153.452 30.3807 153.653 30.4645 153.82 30.6321C153.988 30.7969 154.072 30.9957 154.072 31.2287C154.072 31.3849 154.032 31.5284 153.952 31.6591C153.876 31.7869 153.773 31.8892 153.646 31.9659C153.518 32.0426 153.376 32.081 153.219 32.081Z" fill="#222222"/>
</svg>
