<svg width="292" height="54" viewBox="0 0 292 54" fill="none" xmlns="http://www.w3.org/2000/svg">
<rect width="292" height="54" rx="12" fill="#D9D9D9" fill-opacity="0.5"/>
<path d="M26.7614 32.1449C26.3466 32.1449 25.9716 32.0682 25.6364 31.9148C25.3011 31.7585 25.0355 31.5327 24.8395 31.2372C24.6463 30.9418 24.5497 30.5795 24.5497 30.1506C24.5497 29.7812 24.6207 29.4773 24.7628 29.2386C24.9048 29 25.0966 28.8111 25.3381 28.6719C25.5795 28.5327 25.8494 28.4276 26.1477 28.3565C26.446 28.2855 26.75 28.2315 27.0597 28.1946C27.4517 28.1491 27.7699 28.1122 28.0142 28.0838C28.2585 28.0526 28.4361 28.0028 28.5469 27.9347C28.6577 27.8665 28.7131 27.7557 28.7131 27.6023V27.5724C28.7131 27.2003 28.608 26.9119 28.3977 26.7074C28.1903 26.5028 27.8807 26.4006 27.4688 26.4006C27.0398 26.4006 26.7017 26.4957 26.4545 26.6861C26.2102 26.8736 26.0412 27.0824 25.9474 27.3125L24.75 27.0398C24.892 26.642 25.0994 26.321 25.3722 26.0767C25.6477 25.8295 25.9645 25.6506 26.3224 25.5398C26.6804 25.4261 27.0568 25.3693 27.4517 25.3693C27.7131 25.3693 27.9901 25.4006 28.2827 25.4631C28.5781 25.5227 28.8537 25.6335 29.1094 25.7955C29.3679 25.9574 29.5795 26.1889 29.7443 26.4901C29.9091 26.7884 29.9915 27.1761 29.9915 27.6534V32H28.7472V31.1051H28.696C28.6136 31.2699 28.4901 31.4318 28.3253 31.5909C28.1605 31.75 27.9489 31.8821 27.6903 31.9872C27.4318 32.0923 27.1222 32.1449 26.7614 32.1449ZM27.0384 31.1222C27.3906 31.1222 27.6918 31.0526 27.9418 30.9134C28.1946 30.7741 28.3864 30.5923 28.517 30.3679C28.6506 30.1406 28.7173 29.8977 28.7173 29.6392V28.7955C28.6719 28.8409 28.5838 28.8835 28.4531 28.9233C28.3253 28.9602 28.179 28.9929 28.0142 29.0213C27.8494 29.0469 27.6889 29.071 27.5327 29.0938C27.3764 29.1136 27.2457 29.1307 27.1406 29.1449C26.8935 29.1761 26.6676 29.2287 26.4631 29.3026C26.2614 29.3764 26.0994 29.483 25.9773 29.6222C25.858 29.7585 25.7983 29.9403 25.7983 30.1676C25.7983 30.483 25.9148 30.7216 26.1477 30.8835C26.3807 31.0426 26.6776 31.1222 27.0384 31.1222ZM34.1388 32.1278C33.6104 32.1278 33.1388 31.9929 32.7241 31.723C32.3121 31.4503 31.9883 31.0625 31.7525 30.5597C31.5195 30.054 31.4031 29.4474 31.4031 28.7401C31.4031 28.0327 31.521 27.4276 31.7567 26.9247C31.9954 26.4219 32.3221 26.0369 32.7369 25.7699C33.1516 25.5028 33.6218 25.3693 34.1474 25.3693C34.5536 25.3693 34.8803 25.4375 35.1275 25.5739C35.3775 25.7074 35.5707 25.8636 35.707 26.0426C35.8462 26.2216 35.9542 26.3793 36.0309 26.5156H36.1076V23.2727H37.3817V32H36.1374V30.9815H36.0309C35.9542 31.1207 35.8434 31.2798 35.6985 31.4588C35.5565 31.6378 35.3604 31.794 35.1104 31.9276C34.8604 32.0611 34.5366 32.1278 34.1388 32.1278ZM34.4201 31.0412C34.7866 31.0412 35.0962 30.9446 35.3491 30.7514C35.6048 30.5554 35.7979 30.2841 35.9286 29.9375C36.0621 29.5909 36.1289 29.1875 36.1289 28.7273C36.1289 28.2727 36.0636 27.875 35.9329 27.5341C35.8022 27.1932 35.6104 26.9276 35.3576 26.7372C35.1048 26.5469 34.7923 26.4517 34.4201 26.4517C34.0366 26.4517 33.717 26.5511 33.4613 26.75C33.2056 26.9489 33.0124 27.2202 32.8817 27.5639C32.7539 27.9077 32.69 28.2955 32.69 28.7273C32.69 29.1648 32.7553 29.5582 32.886 29.9077C33.0167 30.2571 33.2099 30.5341 33.4656 30.7386C33.7241 30.9403 34.0423 31.0412 34.4201 31.0412ZM44.1051 27.0526L42.9503 27.2571C42.902 27.1094 42.8253 26.9687 42.7202 26.8352C42.6179 26.7017 42.4787 26.5923 42.3026 26.5071C42.1264 26.4219 41.9063 26.3793 41.642 26.3793C41.2813 26.3793 40.9801 26.4602 40.7386 26.6222C40.4972 26.7812 40.3764 26.9872 40.3764 27.2401C40.3764 27.4588 40.4574 27.6349 40.6193 27.7685C40.7813 27.902 41.0426 28.0114 41.4034 28.0966L42.4432 28.3352C43.0455 28.4744 43.4943 28.6889 43.7898 28.9787C44.0852 29.2685 44.233 29.6449 44.233 30.108C44.233 30.5 44.1193 30.8494 43.892 31.1562C43.6676 31.4602 43.3537 31.6989 42.9503 31.8722C42.5497 32.0455 42.0852 32.1321 41.5568 32.1321C40.8239 32.1321 40.2259 31.9759 39.7628 31.6634C39.2997 31.348 39.0156 30.9006 38.9105 30.321L40.142 30.1335C40.2188 30.4545 40.3764 30.6974 40.6151 30.8622C40.8537 31.0241 41.1648 31.1051 41.5483 31.1051C41.9659 31.1051 42.2997 31.0185 42.5497 30.8452C42.7997 30.669 42.9247 30.4545 42.9247 30.2017C42.9247 29.9972 42.848 29.8253 42.6946 29.6861C42.544 29.5469 42.3125 29.4418 42 29.3707L40.892 29.1278C40.2813 28.9886 39.8295 28.767 39.5369 28.4631C39.2472 28.1591 39.1023 27.7741 39.1023 27.3082C39.1023 26.9219 39.2102 26.5838 39.4261 26.294C39.642 26.0043 39.9403 25.7784 40.321 25.6165C40.7017 25.4517 41.1378 25.3693 41.6293 25.3693C42.3366 25.3693 42.8935 25.5227 43.2997 25.8295C43.706 26.1335 43.9744 26.5412 44.1051 27.0526ZM49.4904 27.7599V28.8636H45.6211V27.7599H49.4904ZM54.0096 32.1321C53.3647 32.1321 52.8093 31.9943 52.3434 31.7188C51.8803 31.4403 51.5224 31.0497 51.2695 30.5469C51.0195 30.0412 50.8945 29.4489 50.8945 28.7699C50.8945 28.0994 51.0195 27.5085 51.2695 26.9972C51.5224 26.4858 51.8746 26.0866 52.3263 25.7997C52.7809 25.5128 53.3121 25.3693 53.9201 25.3693C54.2894 25.3693 54.6474 25.4304 54.994 25.5526C55.3406 25.6747 55.6516 25.8665 55.9272 26.1278C56.2028 26.3892 56.4201 26.7287 56.5792 27.1463C56.7383 27.5611 56.8178 28.0653 56.8178 28.6591V29.1108H51.6147V28.1562H55.5692C55.5692 27.821 55.5011 27.5241 55.3647 27.2656C55.2283 27.0043 55.0366 26.7983 54.7894 26.6477C54.5451 26.4972 54.2582 26.4219 53.9286 26.4219C53.5707 26.4219 53.2582 26.5099 52.9911 26.6861C52.7269 26.8594 52.5224 27.0866 52.3775 27.3679C52.2354 27.6463 52.1644 27.9489 52.1644 28.2756V29.0213C52.1644 29.4588 52.2411 29.831 52.3945 30.1378C52.5508 30.4446 52.7681 30.679 53.0465 30.8409C53.3249 31 53.6502 31.0795 54.0224 31.0795C54.2638 31.0795 54.484 31.0455 54.6829 30.9773C54.8817 30.9062 55.0536 30.8011 55.1985 30.6619C55.3434 30.5227 55.4542 30.3509 55.5309 30.1463L56.7369 30.3636C56.6403 30.7187 56.467 31.0298 56.217 31.2969C55.9698 31.5611 55.6587 31.767 55.2837 31.9148C54.9116 32.0597 54.4869 32.1321 54.0096 32.1321ZM58.2315 32V25.4545H59.4631V26.4943H59.5312C59.6506 26.142 59.8608 25.8651 60.1619 25.6634C60.4659 25.4588 60.8097 25.3565 61.1932 25.3565C61.2727 25.3565 61.3665 25.3594 61.4744 25.3651C61.5852 25.3707 61.6719 25.3778 61.7344 25.3864V26.6051C61.6832 26.5909 61.5923 26.5753 61.4616 26.5582C61.331 26.5384 61.2003 26.5284 61.0696 26.5284C60.7685 26.5284 60.5 26.5923 60.2642 26.7202C60.0313 26.8452 59.8466 27.0199 59.7102 27.2443C59.5739 27.4659 59.5057 27.7187 59.5057 28.0028V32H58.2315ZM62.837 32V25.4545H64.0685V26.4943H64.1367C64.256 26.142 64.4663 25.8651 64.7674 25.6634C65.0714 25.4588 65.4151 25.3565 65.7987 25.3565C65.8782 25.3565 65.9719 25.3594 66.0799 25.3651C66.1907 25.3707 66.2773 25.3778 66.3398 25.3864V26.6051C66.2887 26.5909 66.1978 26.5753 66.0671 26.5582C65.9364 26.5384 65.8058 26.5284 65.6751 26.5284C65.3739 26.5284 65.1055 26.5923 64.8697 26.7202C64.6367 26.8452 64.4521 27.0199 64.3157 27.2443C64.1793 27.4659 64.1112 27.7187 64.1112 28.0028V32H62.837ZM70.9123 27.7599V28.8636H67.043V27.7599H70.9123ZM78.2099 25.4545L75.8363 32H74.4727L72.0948 25.4545H73.4627L75.1204 30.4915H75.1886L76.842 25.4545H78.2099ZM81.9418 32.1321C81.3082 32.1321 80.7628 31.9886 80.3054 31.7017C79.8509 31.4119 79.5014 31.0128 79.2571 30.5043C79.0128 29.9957 78.8906 29.4134 78.8906 28.7571C78.8906 28.0923 79.0156 27.5057 79.2656 26.9972C79.5156 26.4858 79.8679 26.0866 80.3224 25.7997C80.777 25.5128 81.3125 25.3693 81.929 25.3693C82.4261 25.3693 82.8693 25.4616 83.2585 25.6463C83.6477 25.8281 83.9616 26.0838 84.2003 26.4134C84.4418 26.7429 84.5852 27.1278 84.6307 27.5682H83.3906C83.3224 27.2614 83.1662 26.9972 82.9219 26.7756C82.6804 26.554 82.3565 26.4432 81.9503 26.4432C81.5952 26.4432 81.2841 26.5369 81.017 26.7244C80.7528 26.9091 80.5469 27.1733 80.3991 27.517C80.2514 27.858 80.1776 28.2614 80.1776 28.7273C80.1776 29.2045 80.25 29.6165 80.3949 29.9631C80.5398 30.3097 80.7443 30.5781 81.0085 30.7685C81.2756 30.9588 81.5895 31.054 81.9503 31.054C82.1918 31.054 82.4105 31.0099 82.6065 30.9219C82.8054 30.831 82.9716 30.7017 83.1051 30.5341C83.2415 30.3665 83.3366 30.1648 83.3906 29.929H84.6307C84.5852 30.3523 84.4474 30.7301 84.2173 31.0625C83.9872 31.3949 83.679 31.6562 83.2926 31.8466C82.9091 32.0369 82.4588 32.1321 81.9418 32.1321ZM89.8498 27.7599V28.8636H85.9805V27.7599H89.8498ZM93.9982 32.1278C93.4698 32.1278 92.9982 31.9929 92.5835 31.723C92.1715 31.4503 91.8477 31.0625 91.6119 30.5597C91.3789 30.054 91.2624 29.4474 91.2624 28.7401C91.2624 28.0327 91.3803 27.4276 91.6161 26.9247C91.8548 26.4219 92.1815 26.0369 92.5962 25.7699C93.011 25.5028 93.4812 25.3693 94.0067 25.3693C94.413 25.3693 94.7397 25.4375 94.9869 25.5739C95.2369 25.7074 95.43 25.8636 95.5664 26.0426C95.7056 26.2216 95.8136 26.3793 95.8903 26.5156H95.967V23.2727H97.2411V32H95.9968V30.9815H95.8903C95.8136 31.1207 95.7028 31.2798 95.5579 31.4588C95.4158 31.6378 95.2198 31.794 94.9698 31.9276C94.7198 32.0611 94.396 32.1278 93.9982 32.1278ZM94.2795 31.0412C94.646 31.0412 94.9556 30.9446 95.2085 30.7514C95.4641 30.5554 95.6573 30.2841 95.788 29.9375C95.9215 29.5909 95.9883 29.1875 95.9883 28.7273C95.9883 28.2727 95.9229 27.875 95.7923 27.5341C95.6616 27.1932 95.4698 26.9276 95.217 26.7372C94.9641 26.5469 94.6516 26.4517 94.2795 26.4517C93.896 26.4517 93.5763 26.5511 93.3207 26.75C93.065 26.9489 92.8718 27.2202 92.7411 27.5639C92.6133 27.9077 92.5494 28.2955 92.5494 28.7273C92.5494 29.1648 92.6147 29.5582 92.7454 29.9077C92.8761 30.2571 93.0692 30.5341 93.3249 30.7386C93.5835 30.9403 93.9016 31.0412 94.2795 31.0412ZM102.175 25.4545V26.4773H98.4759V25.4545H102.175ZM99.4901 32V24.696C99.4901 24.2869 99.5795 23.9474 99.7585 23.6776C99.9375 23.4048 100.175 23.2017 100.47 23.0682C100.766 22.9318 101.087 22.8636 101.433 22.8636C101.689 22.8636 101.908 22.8849 102.089 22.9276C102.271 22.9673 102.406 23.0043 102.494 23.0384L102.196 24.0696C102.136 24.0526 102.06 24.0327 101.966 24.0099C101.872 23.9844 101.759 23.9716 101.625 23.9716C101.315 23.9716 101.094 24.0483 100.96 24.2017C100.83 24.3551 100.764 24.5767 100.764 24.8665V32H99.4901ZM105.682 32.1278C105.153 32.1278 104.682 31.9929 104.267 31.723C103.855 31.4503 103.531 31.0625 103.295 30.5597C103.063 30.054 102.946 29.4474 102.946 28.7401C102.946 28.0327 103.064 27.4276 103.3 26.9247C103.538 26.4219 103.865 26.0369 104.28 25.7699C104.695 25.5028 105.165 25.3693 105.69 25.3693C106.097 25.3693 106.423 25.4375 106.67 25.5739C106.92 25.7074 107.114 25.8636 107.25 26.0426C107.389 26.2216 107.497 26.3793 107.574 26.5156H107.651V23.2727H108.925V32H107.68V30.9815H107.574C107.497 31.1207 107.386 31.2798 107.241 31.4588C107.099 31.6378 106.903 31.794 106.653 31.9276C106.403 32.0611 106.08 32.1278 105.682 32.1278ZM105.963 31.0412C106.33 31.0412 106.639 30.9446 106.892 30.7514C107.148 30.5554 107.341 30.2841 107.472 29.9375C107.605 29.5909 107.672 29.1875 107.672 28.7273C107.672 28.2727 107.607 27.875 107.476 27.5341C107.345 27.1932 107.153 26.9276 106.901 26.7372C106.648 26.5469 106.335 26.4517 105.963 26.4517C105.58 26.4517 105.26 26.5511 105.004 26.75C104.749 26.9489 104.555 27.2202 104.425 27.5639C104.297 27.9077 104.233 28.2955 104.233 28.7273C104.233 29.1648 104.298 29.5582 104.429 29.9077C104.56 30.2571 104.753 30.5341 105.009 30.7386C105.267 30.9403 105.585 31.0412 105.963 31.0412ZM114.6 27.7599V28.8636H110.73V27.7599H114.6ZM117.034 25.4545L118.479 28.0028L119.936 25.4545H121.33L119.288 28.7273L121.347 32H119.953L118.479 29.554L117.009 32H115.611L117.648 28.7273L115.636 25.4545H117.034ZM125.753 25.4545V26.4773H122.054V25.4545H125.753ZM123.068 32V24.696C123.068 24.2869 123.158 23.9474 123.337 23.6776C123.516 23.4048 123.753 23.2017 124.048 23.0682C124.344 22.9318 124.665 22.8636 125.011 22.8636C125.267 22.8636 125.486 22.8849 125.668 22.9276C125.849 22.9673 125.984 23.0043 126.072 23.0384L125.774 24.0696C125.714 24.0526 125.638 24.0327 125.544 24.0099C125.45 23.9844 125.337 23.9716 125.203 23.9716C124.893 23.9716 124.672 24.0483 124.538 24.2017C124.408 24.3551 124.342 24.5767 124.342 24.8665V32H123.068ZM129.26 32.1278C128.732 32.1278 128.26 31.9929 127.845 31.723C127.433 31.4503 127.109 31.0625 126.874 30.5597C126.641 30.054 126.524 29.4474 126.524 28.7401C126.524 28.0327 126.642 27.4276 126.878 26.9247C127.116 26.4219 127.443 26.0369 127.858 25.7699C128.273 25.5028 128.743 25.3693 129.268 25.3693C129.675 25.3693 130.001 25.4375 130.249 25.5739C130.499 25.7074 130.692 25.8636 130.828 26.0426C130.967 26.2216 131.075 26.3793 131.152 26.5156H131.229V23.2727H132.503V32H131.259V30.9815H131.152C131.075 31.1207 130.964 31.2798 130.82 31.4588C130.678 31.6378 130.482 31.794 130.232 31.9276C129.982 32.0611 129.658 32.1278 129.26 32.1278ZM129.541 31.0412C129.908 31.0412 130.217 30.9446 130.47 30.7514C130.726 30.5554 130.919 30.2841 131.05 29.9375C131.183 29.5909 131.25 29.1875 131.25 28.7273C131.25 28.2727 131.185 27.875 131.054 27.5341C130.923 27.1932 130.732 26.9276 130.479 26.7372C130.226 26.5469 129.913 26.4517 129.541 26.4517C129.158 26.4517 128.838 26.5511 128.582 26.75C128.327 26.9489 128.134 27.2202 128.003 27.5639C127.875 27.9077 127.811 28.2955 127.811 28.7273C127.811 29.1648 127.876 29.5582 128.007 29.9077C128.138 30.2571 128.331 30.5341 128.587 30.7386C128.845 30.9403 129.163 31.0412 129.541 31.0412ZM136.772 32.1278C136.243 32.1278 135.772 31.9929 135.357 31.723C134.945 31.4503 134.621 31.0625 134.385 30.5597C134.152 30.054 134.036 29.4474 134.036 28.7401C134.036 28.0327 134.154 27.4276 134.39 26.9247C134.628 26.4219 134.955 26.0369 135.37 25.7699C135.784 25.5028 136.255 25.3693 136.78 25.3693C137.186 25.3693 137.513 25.4375 137.76 25.5739C138.01 25.7074 138.203 25.8636 138.34 26.0426C138.479 26.2216 138.587 26.3793 138.664 26.5156H138.74V23.2727H140.015V32H138.77V30.9815H138.664C138.587 31.1207 138.476 31.2798 138.331 31.4588C138.189 31.6378 137.993 31.794 137.743 31.9276C137.493 32.0611 137.169 32.1278 136.772 32.1278ZM137.053 31.0412C137.419 31.0412 137.729 30.9446 137.982 30.7514C138.238 30.5554 138.431 30.2841 138.561 29.9375C138.695 29.5909 138.762 29.1875 138.762 28.7273C138.762 28.2727 138.696 27.875 138.566 27.5341C138.435 27.1932 138.243 26.9276 137.99 26.7372C137.738 26.5469 137.425 26.4517 137.053 26.4517C136.669 26.4517 136.35 26.5511 136.094 26.75C135.838 26.9489 135.645 27.2202 135.515 27.5639C135.387 27.9077 135.323 28.2955 135.323 28.7273C135.323 29.1648 135.388 29.5582 135.519 29.9077C135.65 30.2571 135.843 30.5341 136.098 30.7386C136.357 30.9403 136.675 31.0412 137.053 31.0412ZM144.948 25.4545V26.4773H141.249V25.4545H144.948ZM142.263 32V24.696C142.263 24.2869 142.353 23.9474 142.532 23.6776C142.711 23.4048 142.948 23.2017 143.244 23.0682C143.539 22.9318 143.86 22.8636 144.207 22.8636C144.462 22.8636 144.681 22.8849 144.863 22.9276C145.045 22.9673 145.18 23.0043 145.268 23.0384L144.969 24.0696C144.91 24.0526 144.833 24.0327 144.739 24.0099C144.646 23.9844 144.532 23.9716 144.398 23.9716C144.089 23.9716 143.867 24.0483 143.734 24.2017C143.603 24.3551 143.538 24.5767 143.538 24.8665V32H142.263ZM149.815 27.7599V28.8636H145.945V27.7599H149.815ZM153.963 32.1278C153.435 32.1278 152.963 31.9929 152.548 31.723C152.136 31.4503 151.813 31.0625 151.577 30.5597C151.344 30.054 151.227 29.4474 151.227 28.7401C151.227 28.0327 151.345 27.4276 151.581 26.9247C151.82 26.4219 152.146 26.0369 152.561 25.7699C152.976 25.5028 153.446 25.3693 153.972 25.3693C154.378 25.3693 154.705 25.4375 154.952 25.5739C155.202 25.7074 155.395 25.8636 155.531 26.0426C155.67 26.2216 155.778 26.3793 155.855 26.5156H155.932V23.2727H157.206V32H155.962V30.9815H155.855C155.778 31.1207 155.668 31.2798 155.523 31.4588C155.381 31.6378 155.185 31.794 154.935 31.9276C154.685 32.0611 154.361 32.1278 153.963 32.1278ZM154.244 31.0412C154.611 31.0412 154.92 30.9446 155.173 30.7514C155.429 30.5554 155.622 30.2841 155.753 29.9375C155.886 29.5909 155.953 29.1875 155.953 28.7273C155.953 28.2727 155.888 27.875 155.757 27.5341C155.626 27.1932 155.435 26.9276 155.182 26.7372C154.929 26.5469 154.616 26.4517 154.244 26.4517C153.861 26.4517 153.541 26.5511 153.286 26.75C153.03 26.9489 152.837 27.2202 152.706 27.5639C152.578 27.9077 152.514 28.2955 152.514 28.7273C152.514 29.1648 152.58 29.5582 152.71 29.9077C152.841 30.2571 153.034 30.5341 153.29 30.7386C153.548 30.9403 153.866 31.0412 154.244 31.0412ZM162.14 25.4545V26.4773H158.441V25.4545H162.14ZM159.455 32V24.696C159.455 24.2869 159.544 23.9474 159.723 23.6776C159.902 23.4048 160.14 23.2017 160.435 23.0682C160.73 22.9318 161.051 22.8636 161.398 22.8636C161.654 22.8636 161.873 22.8849 162.054 22.9276C162.236 22.9673 162.371 23.0043 162.459 23.0384L162.161 24.0696C162.101 24.0526 162.025 24.0327 161.931 24.0099C161.837 23.9844 161.723 23.9716 161.59 23.9716C161.28 23.9716 161.059 24.0483 160.925 24.2017C160.794 24.3551 160.729 24.5767 160.729 24.8665V32H159.455ZM165.941 34.5909C165.421 34.5909 164.973 34.5227 164.598 34.3864C164.226 34.25 163.922 34.0696 163.686 33.8452C163.451 33.6207 163.275 33.375 163.158 33.108L164.253 32.6562C164.33 32.7812 164.432 32.9134 164.56 33.0526C164.691 33.1946 164.867 33.3153 165.088 33.4148C165.313 33.5142 165.601 33.5639 165.953 33.5639C166.436 33.5639 166.836 33.446 167.151 33.2102C167.466 32.9773 167.624 32.6051 167.624 32.0938V30.8068H167.543C167.466 30.946 167.355 31.1009 167.211 31.2713C167.069 31.4418 166.873 31.5895 166.623 31.7145C166.373 31.8395 166.047 31.902 165.647 31.902C165.13 31.902 164.664 31.7812 164.249 31.5398C163.837 31.2955 163.51 30.9361 163.269 30.4616C163.03 29.9844 162.911 29.3977 162.911 28.7017C162.911 28.0057 163.029 27.4091 163.265 26.9119C163.503 26.4148 163.83 26.0341 164.245 25.7699C164.659 25.5028 165.13 25.3693 165.655 25.3693C166.061 25.3693 166.39 25.4375 166.64 25.5739C166.89 25.7074 167.084 25.8636 167.223 26.0426C167.365 26.2216 167.475 26.3793 167.551 26.5156H167.645V25.4545H168.894V32.1449C168.894 32.7074 168.763 33.169 168.502 33.5298C168.24 33.8906 167.887 34.1577 167.441 34.331C166.998 34.5043 166.498 34.5909 165.941 34.5909ZM165.928 30.8452C166.294 30.8452 166.604 30.7599 166.857 30.5895C167.113 30.4162 167.306 30.169 167.436 29.848C167.57 29.5241 167.637 29.1364 167.637 28.6847C167.637 28.2443 167.571 27.8565 167.441 27.5213C167.31 27.1861 167.118 26.9247 166.865 26.7372C166.613 26.5469 166.3 26.4517 165.928 26.4517C165.544 26.4517 165.225 26.5511 164.969 26.75C164.713 26.946 164.52 27.2131 164.39 27.5511C164.262 27.8892 164.198 28.267 164.198 28.6847C164.198 29.1136 164.263 29.4901 164.394 29.8139C164.525 30.1378 164.718 30.3906 164.973 30.5724C165.232 30.7543 165.55 30.8452 165.928 30.8452ZM174.459 27.7599V28.8636H170.59V27.7599H174.459ZM175.957 30.2955V29.2301L179.728 23.2727H180.568V24.8409H180.035L177.338 29.1108V29.179H182.507V30.2955H175.957ZM180.095 32V29.9716L180.103 29.4858V23.2727H181.352V32H180.095ZM187.03 32.1449C186.357 32.142 185.782 31.9645 185.304 31.6122C184.827 31.2599 184.462 30.7472 184.209 30.0739C183.956 29.4006 183.83 28.5895 183.83 27.6406C183.83 26.6946 183.956 25.8864 184.209 25.2159C184.465 24.5455 184.831 24.0341 185.309 23.6818C185.789 23.3295 186.363 23.1534 187.03 23.1534C187.698 23.1534 188.27 23.331 188.748 23.6861C189.225 24.0384 189.59 24.5497 189.843 25.2202C190.098 25.8878 190.226 26.6946 190.226 27.6406C190.226 28.5923 190.1 29.4048 189.847 30.0781C189.594 30.7486 189.229 31.2614 188.752 31.6165C188.275 31.9688 187.701 32.1449 187.03 32.1449ZM187.03 31.0071C187.621 31.0071 188.083 30.7188 188.415 30.142C188.75 29.5653 188.918 28.7315 188.918 27.6406C188.918 26.9162 188.841 26.304 188.688 25.804C188.537 25.3011 188.32 24.9205 188.036 24.6619C187.755 24.4006 187.419 24.2699 187.03 24.2699C186.442 24.2699 185.98 24.5597 185.645 25.1392C185.31 25.7187 185.141 26.5526 185.138 27.6406C185.138 28.3679 185.213 28.983 185.364 29.4858C185.517 29.9858 185.735 30.3651 186.016 30.6236C186.297 30.8793 186.635 31.0071 187.03 31.0071ZM194.776 32.1193C194.191 32.1193 193.668 32.0185 193.208 31.8168C192.751 31.6151 192.388 31.3352 192.121 30.9773C191.857 30.6165 191.715 30.1989 191.695 29.7244H193.033C193.05 29.983 193.137 30.2074 193.293 30.3977C193.452 30.5852 193.66 30.7301 193.915 30.8324C194.171 30.9347 194.455 30.9858 194.768 30.9858C195.112 30.9858 195.415 30.9261 195.68 30.8068C195.947 30.6875 196.156 30.5213 196.306 30.3082C196.457 30.0923 196.532 29.8438 196.532 29.5625C196.532 29.2699 196.457 29.0128 196.306 28.7912C196.158 28.5668 195.941 28.3906 195.654 28.2628C195.37 28.1349 195.026 28.071 194.623 28.071H193.886V26.9972H194.623C194.947 26.9972 195.231 26.9389 195.475 26.8224C195.722 26.706 195.915 26.544 196.055 26.3366C196.194 26.1264 196.263 25.8807 196.263 25.5994C196.263 25.3295 196.202 25.0952 196.08 24.8963C195.961 24.6946 195.79 24.5369 195.569 24.4233C195.35 24.3097 195.092 24.2528 194.793 24.2528C194.509 24.2528 194.244 24.3054 193.996 24.4105C193.752 24.5128 193.553 24.6605 193.4 24.8537C193.246 25.044 193.164 25.2727 193.153 25.5398H191.879C191.893 25.0682 192.032 24.6534 192.296 24.2955C192.563 23.9375 192.915 23.6577 193.353 23.456C193.79 23.2543 194.276 23.1534 194.81 23.1534C195.37 23.1534 195.853 23.2628 196.259 23.4815C196.668 23.6974 196.984 23.9858 197.205 24.3466C197.43 24.7074 197.54 25.1023 197.538 25.5312C197.54 26.0199 197.404 26.4347 197.129 26.7756C196.856 27.1165 196.492 27.3452 196.038 27.4616V27.5298C196.617 27.6179 197.066 27.848 197.384 28.2202C197.705 28.5923 197.864 29.054 197.862 29.6051C197.864 30.0852 197.731 30.5156 197.461 30.8963C197.194 31.277 196.829 31.5767 196.366 31.7955C195.903 32.0114 195.373 32.1193 194.776 32.1193ZM199.289 30.2955V29.2301L203.06 23.2727H203.9V24.8409H203.367L200.67 29.1108V29.179H205.839V30.2955H199.289ZM203.427 32V29.9716L203.435 29.4858V23.2727H204.684V32H203.427ZM211.197 27.7599V28.8636H207.328V27.7599H211.197ZM216.011 25.4545V26.4773H212.312V25.4545H216.011ZM213.326 32V24.696C213.326 24.2869 213.415 23.9474 213.594 23.6776C213.773 23.4048 214.011 23.2017 214.306 23.0682C214.602 22.9318 214.923 22.8636 215.269 22.8636C215.525 22.8636 215.744 22.8849 215.925 22.9276C216.107 22.9673 216.242 23.0043 216.33 23.0384L216.032 24.0696C215.972 24.0526 215.896 24.0327 215.802 24.0099C215.708 23.9844 215.594 23.9716 215.461 23.9716C215.151 23.9716 214.93 24.0483 214.796 24.2017C214.665 24.3551 214.6 24.5767 214.6 24.8665V32H213.326ZM220.44 25.4545V26.4773H216.741V25.4545H220.44ZM217.756 32V24.696C217.756 24.2869 217.845 23.9474 218.024 23.6776C218.203 23.4048 218.44 23.2017 218.736 23.0682C219.031 22.9318 219.352 22.8636 219.699 22.8636C219.955 22.8636 220.173 22.8849 220.355 22.9276C220.537 22.9673 220.672 23.0043 220.76 23.0384L220.462 24.0696C220.402 24.0526 220.325 24.0327 220.232 24.0099C220.138 23.9844 220.024 23.9716 219.891 23.9716C219.581 23.9716 219.359 24.0483 219.226 24.2017C219.095 24.3551 219.03 24.5767 219.03 24.8665V32H217.756ZM227.354 25.4545L224.981 32H223.617L221.239 25.4545H222.607L224.265 30.4915H224.333L225.987 25.4545H227.354ZM231.074 34.5909C230.554 34.5909 230.106 34.5227 229.731 34.3864C229.359 34.25 229.055 34.0696 228.819 33.8452C228.583 33.6207 228.407 33.375 228.291 33.108L229.386 32.6562C229.463 32.7812 229.565 32.9134 229.693 33.0526C229.824 33.1946 230 33.3153 230.221 33.4148C230.446 33.5142 230.734 33.5639 231.086 33.5639C231.569 33.5639 231.968 33.446 232.284 33.2102C232.599 32.9773 232.757 32.6051 232.757 32.0938V30.8068H232.676C232.599 30.946 232.488 31.1009 232.343 31.2713C232.201 31.4418 232.005 31.5895 231.755 31.7145C231.505 31.8395 231.18 31.902 230.779 31.902C230.262 31.902 229.797 31.7812 229.382 31.5398C228.97 31.2955 228.643 30.9361 228.402 30.4616C228.163 29.9844 228.044 29.3977 228.044 28.7017C228.044 28.0057 228.162 27.4091 228.397 26.9119C228.636 26.4148 228.963 26.0341 229.377 25.7699C229.792 25.5028 230.262 25.3693 230.788 25.3693C231.194 25.3693 231.522 25.4375 231.772 25.5739C232.022 25.7074 232.217 25.8636 232.356 26.0426C232.498 26.2216 232.608 26.3793 232.684 26.5156H232.778V25.4545H234.027V32.1449C234.027 32.7074 233.896 33.169 233.635 33.5298C233.373 33.8906 233.02 34.1577 232.574 34.331C232.13 34.5043 231.63 34.5909 231.074 34.5909ZM231.061 30.8452C231.427 30.8452 231.737 30.7599 231.99 30.5895C232.245 30.4162 232.439 30.169 232.569 29.848C232.703 29.5241 232.77 29.1364 232.77 28.6847C232.77 28.2443 232.704 27.8565 232.574 27.5213C232.443 27.1861 232.251 26.9247 231.998 26.7372C231.745 26.5469 231.433 26.4517 231.061 26.4517C230.677 26.4517 230.358 26.5511 230.102 26.75C229.846 26.946 229.653 27.2131 229.522 27.5511C229.395 27.8892 229.331 28.267 229.331 28.6847C229.331 29.1136 229.396 29.4901 229.527 29.8139C229.657 30.1378 229.85 30.3906 230.106 30.5724C230.365 30.7543 230.683 30.8452 231.061 30.8452ZM238.186 32.1278C237.657 32.1278 237.186 31.9929 236.771 31.723C236.359 31.4503 236.035 31.0625 235.799 30.5597C235.566 30.054 235.45 29.4474 235.45 28.7401C235.45 28.0327 235.568 27.4276 235.804 26.9247C236.042 26.4219 236.369 26.0369 236.784 25.7699C237.199 25.5028 237.669 25.3693 238.194 25.3693C238.6 25.3693 238.927 25.4375 239.174 25.5739C239.424 25.7074 239.618 25.8636 239.754 26.0426C239.893 26.2216 240.001 26.3793 240.078 26.5156H240.154V23.2727H241.429V32H240.184V30.9815H240.078C240.001 31.1207 239.89 31.2798 239.745 31.4588C239.603 31.6378 239.407 31.794 239.157 31.9276C238.907 32.0611 238.583 32.1278 238.186 32.1278ZM238.467 31.0412C238.833 31.0412 239.143 30.9446 239.396 30.7514C239.652 30.5554 239.845 30.2841 239.975 29.9375C240.109 29.5909 240.176 29.1875 240.176 28.7273C240.176 28.2727 240.11 27.875 239.98 27.5341C239.849 27.1932 239.657 26.9276 239.404 26.7372C239.152 26.5469 238.839 26.4517 238.467 26.4517C238.083 26.4517 237.764 26.5511 237.508 26.75C237.252 26.9489 237.059 27.2202 236.929 27.5639C236.801 27.9077 236.737 28.2955 236.737 28.7273C236.737 29.1648 236.802 29.5582 236.933 29.9077C237.064 30.2571 237.257 30.5341 237.512 30.7386C237.771 30.9403 238.089 31.0412 238.467 31.0412ZM248.847 25.4545L246.473 32H245.109L242.732 25.4545H244.099L245.757 30.4915H245.825L247.479 25.4545H248.847ZM252.272 32.1278C251.743 32.1278 251.272 31.9929 250.857 31.723C250.445 31.4503 250.121 31.0625 249.885 30.5597C249.652 30.054 249.536 29.4474 249.536 28.7401C249.536 28.0327 249.654 27.4276 249.89 26.9247C250.128 26.4219 250.455 26.0369 250.87 25.7699C251.284 25.5028 251.755 25.3693 252.28 25.3693C252.686 25.3693 253.013 25.4375 253.26 25.5739C253.51 25.7074 253.703 25.8636 253.84 26.0426C253.979 26.2216 254.087 26.3793 254.164 26.5156H254.24V23.2727H255.515V32H254.27V30.9815H254.164C254.087 31.1207 253.976 31.2798 253.831 31.4588C253.689 31.6378 253.493 31.794 253.243 31.9276C252.993 32.0611 252.669 32.1278 252.272 32.1278ZM252.553 31.0412C252.919 31.0412 253.229 30.9446 253.482 30.7514C253.738 30.5554 253.931 30.2841 254.061 29.9375C254.195 29.5909 254.262 29.1875 254.262 28.7273C254.262 28.2727 254.196 27.875 254.066 27.5341C253.935 27.1932 253.743 26.9276 253.49 26.7372C253.238 26.5469 252.925 26.4517 252.553 26.4517C252.169 26.4517 251.85 26.5511 251.594 26.75C251.338 26.9489 251.145 27.2202 251.015 27.5639C250.887 27.9077 250.823 28.2955 250.823 28.7273C250.823 29.1648 250.888 29.5582 251.019 29.9077C251.15 30.2571 251.343 30.5341 251.598 30.7386C251.857 30.9403 252.175 31.0412 252.553 31.0412ZM258.173 32.081C257.94 32.081 257.739 31.9986 257.572 31.8338C257.404 31.6662 257.32 31.4645 257.32 31.2287C257.32 30.9957 257.404 30.7969 257.572 30.6321C257.739 30.4645 257.94 30.3807 258.173 30.3807C258.406 30.3807 258.606 30.4645 258.773 30.6321C258.941 30.7969 259.025 30.9957 259.025 31.2287C259.025 31.3849 258.985 31.5284 258.906 31.6591C258.829 31.7869 258.727 31.8892 258.599 31.9659C258.471 32.0426 258.329 32.081 258.173 32.081ZM261.571 32.081C261.338 32.081 261.138 31.9986 260.97 31.8338C260.803 31.6662 260.719 31.4645 260.719 31.2287C260.719 30.9957 260.803 30.7969 260.97 30.6321C261.138 30.4645 261.338 30.3807 261.571 30.3807C261.804 30.3807 262.004 30.4645 262.172 30.6321C262.339 30.7969 262.423 30.9957 262.423 31.2287C262.423 31.3849 262.384 31.5284 262.304 31.6591C262.227 31.7869 262.125 31.8892 261.997 31.9659C261.869 32.0426 261.727 32.081 261.571 32.081ZM264.969 32.081C264.737 32.081 264.536 31.9986 264.369 31.8338C264.201 31.6662 264.117 31.4645 264.117 31.2287C264.117 30.9957 264.201 30.7969 264.369 30.6321C264.536 30.4645 264.737 30.3807 264.969 30.3807C265.202 30.3807 265.403 30.4645 265.57 30.6321C265.738 30.7969 265.822 30.9957 265.822 31.2287C265.822 31.3849 265.782 31.5284 265.702 31.6591C265.626 31.7869 265.523 31.8892 265.396 31.9659C265.268 32.0426 265.126 32.081 264.969 32.081Z" fill="#222222" fill-opacity="0.8"/>
</svg>
