<svg width="24" height="24" viewBox="0 0 24 24" fill="none" xmlns="http://www.w3.org/2000/svg">
<path d="M17.75 3C18.5801 2.99995 19.3788 3.31755 19.9822 3.88767C20.5856 4.45779 20.948 5.23719 20.995 6.066L21 6.25V17.75C21.0001 18.5801 20.6824 19.3788 20.1123 19.9822C19.5422 20.5856 18.7628 20.948 17.934 20.995L17.75 21H6.25C5.41986 21.0001 4.62117 20.6824 4.01777 20.1123C3.41437 19.5422 3.052 18.7628 3.005 17.934L3 17.75V9.372C3.48524 9.54382 4.01476 9.54382 4.5 9.372V17.75C4.50004 18.1893 4.66533 18.6126 4.96305 18.9357C5.26076 19.2588 5.66912 19.4581 6.107 19.494L6.25 19.5H17.75C18.1893 19.5 18.6126 19.3347 18.9357 19.037C19.2588 18.7392 19.4581 18.3309 19.494 17.893L19.5 17.75V6.25C19.5 5.81081 19.3348 5.38768 19.0373 5.06461C18.7398 4.74154 18.3317 4.54214 17.894 4.506L17.75 4.5H6.25C5.65 4.5 5.12 4.802 4.805 5.263C4.32063 5.00391 3.75779 4.93235 3.224 5.062C3.45159 4.48338 3.84025 3.9821 4.34393 3.61754C4.84762 3.25298 5.44523 3.04041 6.066 3.005L6.25 3H17.75ZM13.246 13.003C13.436 13.0031 13.6189 13.0752 13.7578 13.205C13.8966 13.3347 13.9811 13.5123 13.994 13.7019C14.007 13.8915 13.9475 14.0789 13.8276 14.2263C13.7077 14.3737 13.5362 14.4701 13.348 14.496L13.246 14.503H8.748C8.55798 14.5029 8.37506 14.4308 8.23621 14.301C8.09736 14.1713 8.01293 13.9937 7.99997 13.8041C7.98702 13.6145 8.04651 13.4271 8.16643 13.2797C8.28635 13.1323 8.45775 13.0359 8.646 13.01L8.748 13.003H13.246ZM15.252 9.496C15.442 9.49606 15.6249 9.56824 15.7638 9.69797C15.9026 9.8277 15.9871 10.0053 16 10.1949C16.013 10.3845 15.9535 10.5719 15.8336 10.7193C15.7137 10.8667 15.5422 10.9631 15.354 10.989L15.252 10.996H8.748C8.55798 10.9959 8.37506 10.9238 8.23621 10.794C8.09736 10.6643 8.01293 10.4867 7.99997 10.2971C7.98702 10.1075 8.04651 9.92011 8.16643 9.7727C8.28635 9.62529 8.45775 9.5289 8.646 9.503L8.748 9.496H15.252ZM3.75 6C4.08152 6 4.39946 6.1317 4.63388 6.36612C4.8683 6.60054 5 6.91848 5 7.25C5 7.58152 4.8683 7.89946 4.63388 8.13388C4.39946 8.3683 4.08152 8.5 3.75 8.5C3.41848 8.5 3.10054 8.3683 2.86612 8.13388C2.6317 7.89946 2.5 7.58152 2.5 7.25C2.5 6.91848 2.6317 6.60054 2.86612 6.36612C3.10054 6.1317 3.41848 6 3.75 6Z" fill="#222222"/>
</svg>
