<svg width="24" height="24" viewBox="0 0 24 24" fill="none" xmlns="http://www.w3.org/2000/svg">
<g clip-path="url(#clip0_343_217)">
<path d="M12.0671 7.33301C9.46706 7.33301 7.40039 9.39967 7.40039 11.9997C7.40039 14.5997 9.46706 16.6663 12.0671 16.6663C14.6671 16.6663 16.7337 14.5997 16.7337 11.9997C16.7337 9.39967 14.6671 7.33301 12.0671 7.33301ZM12.0671 15.333C10.2004 15.333 8.73372 13.8663 8.73372 11.9997C8.73372 10.133 10.2004 8.66634 12.0671 8.66634C13.9337 8.66634 15.4004 10.133 15.4004 11.9997C15.4004 13.8663 13.9337 15.333 12.0671 15.333Z" fill="#444444"/>
<path d="M21.8663 9.79967L19.9997 9.19967L19.5997 8.19967L20.533 6.46634C20.733 6.06634 20.6663 5.53301 20.333 5.19967L18.733 3.59967C18.3997 3.26634 17.8663 3.19967 17.4663 3.39967L15.733 4.33301L14.733 3.93301L14.133 2.06634C13.9997 1.66634 13.5997 1.33301 13.133 1.33301H10.8663C10.3997 1.33301 9.99967 1.66634 9.93301 2.13301L9.33301 3.99967C8.93301 4.06634 8.59967 4.19967 8.26634 4.39967L6.53301 3.46634C6.13301 3.26634 5.59967 3.33301 5.26634 3.66634L3.66634 5.26634C3.33301 5.59967 3.26634 6.13301 3.46634 6.53301L4.33301 8.19967C4.19967 8.53301 4.06634 8.93301 3.93301 9.26634L2.06634 9.86634C1.66634 9.99967 1.33301 10.3997 1.33301 10.8663V13.133C1.33301 13.5997 1.66634 13.9997 2.13301 14.133L3.99967 14.733L4.39967 15.733L3.46634 17.4663C3.26634 17.8663 3.33301 18.3997 3.66634 18.733L5.26634 20.333C5.59967 20.6663 6.13301 20.733 6.53301 20.533L8.26634 19.5997L9.26634 19.9997L9.86634 21.933C9.99967 22.333 10.3997 22.6663 10.8663 22.6663H13.133C13.5997 22.6663 13.9997 22.333 14.133 21.933L14.733 19.9997L15.733 19.5997L17.4663 20.533C17.8663 20.733 18.3997 20.6663 18.733 20.333L20.333 18.733C20.6663 18.3997 20.733 17.8663 20.533 17.4663L19.5997 15.733L19.9997 14.733L21.933 14.133C22.333 13.9997 22.6663 13.5997 22.6663 13.133V10.8663C22.6663 10.3997 22.333 9.93301 21.8663 9.79967V9.79967ZM21.333 12.933L18.933 13.6663L18.8663 13.9997L18.2663 15.3997L18.0663 15.733L19.2663 17.933L17.933 19.2663L15.733 18.0663L15.3997 18.2663C14.933 18.533 14.4663 18.733 13.9997 18.8663L13.6663 18.933L12.933 21.333H11.0663L10.333 18.933L9.99967 18.8663L8.59967 18.2663L8.26634 18.0663L6.06634 19.2663L4.73301 17.933L5.93301 15.733L5.73301 15.3997C5.46634 14.933 5.26634 14.4663 5.13301 13.9997L5.06634 13.6663L2.66634 12.933V11.0663L4.93301 10.3997L5.06634 10.0663C5.19967 9.53301 5.39967 9.06634 5.66634 8.59967L5.86634 8.26634L4.73301 6.06634L6.06634 4.73301L8.19967 5.93301L8.53301 5.73301C8.99967 5.46634 9.46634 5.26634 9.99967 5.13301L10.333 4.99967L11.0663 2.66634H12.933L13.6663 4.99967L13.9997 5.13301C14.4663 5.26634 14.933 5.46634 15.3997 5.73301L15.733 5.93301L17.933 4.73301L19.2663 6.06634L18.0663 8.26634L18.2663 8.59967C18.533 9.06634 18.733 9.53301 18.8663 9.99967L18.933 10.333L21.333 11.0663V12.933V12.933Z" fill="#444444"/>
</g>
<defs>
<clipPath id="clip0_343_217">
<rect width="24" height="24" fill="white"/>
</clipPath>
</defs>
</svg>
