<svg width="24" height="24" viewBox="0 0 24 24" fill="none" xmlns="http://www.w3.org/2000/svg">
<path d="M19.1998 2.40039H15.5998V3.60039H8.3998V2.40039H4.7998V20.4004H8.3998V19.2004H15.5998V20.4004H19.1998V2.40039ZM7.1998 3.60039V4.80039H5.9998V3.60039H7.1998ZM17.9998 3.60039V4.80039H16.7998V3.60039H17.9998ZM15.5998 4.80039V10.8004H8.3998V4.80039H15.5998ZM7.1998 6.00039V7.20039H5.9998V6.00039H7.1998ZM17.9998 6.00039V7.20039H16.7998V6.00039H17.9998ZM7.1998 8.40039V9.60039H5.9998V8.40039H7.1998ZM17.9998 8.40039V9.60039H16.7998V8.40039H17.9998ZM7.1998 10.8004V12.0004H5.9998V10.8004H7.1998ZM17.9998 10.8004V12.0004H16.7998V10.8004H17.9998ZM15.5998 12.0004V18.0004H8.3998V12.0004H15.5998ZM7.1998 13.2004V14.4004H5.9998V13.2004H7.1998ZM17.9998 13.2004V14.4004H16.7998V13.2004H17.9998ZM7.1998 15.6004V16.8004H5.9998V15.6004H7.1998ZM17.9998 15.6004V16.8004H16.7998V15.6004H17.9998ZM7.1998 18.0004V19.2004H5.9998V18.0004H7.1998ZM17.9998 18.0004V19.2004H16.7998V18.0004H17.9998Z" fill="#444444"/>
</svg>
